<svg width="138" height="35" viewBox="0 0 138 35" fill="none" xmlns="http://www.w3.org/2000/svg">
<path d="M1.94034 33V29.3636H2.35938V30.706H2.39489C2.42566 30.6586 2.46828 30.5982 2.52273 30.5249C2.57836 30.4503 2.65767 30.384 2.76065 30.326C2.86482 30.2668 3.00568 30.2372 3.18324 30.2372C3.41288 30.2372 3.61529 30.2946 3.79048 30.4094C3.96567 30.5243 4.10239 30.687 4.20064 30.8977C4.29889 31.1084 4.34801 31.357 4.34801 31.6435C4.34801 31.9323 4.29889 32.1826 4.20064 32.3945C4.10239 32.6052 3.96626 32.7686 3.79226 32.8846C3.61825 32.9994 3.41761 33.0568 3.19034 33.0568C3.01515 33.0568 2.87488 33.0278 2.76953 32.9698C2.66418 32.9106 2.5831 32.8437 2.52628 32.7692C2.46946 32.6934 2.42566 32.6307 2.39489 32.581H2.34517V33H1.94034ZM2.35227 31.6364C2.35227 31.8423 2.38246 32.024 2.44283 32.1815C2.5032 32.3377 2.59138 32.4602 2.70739 32.549C2.82339 32.6366 2.96544 32.6804 3.13352 32.6804C3.30871 32.6804 3.4549 32.6342 3.57209 32.5419C3.69046 32.4484 3.77924 32.3229 3.83842 32.1655C3.89879 32.0069 3.92898 31.8305 3.92898 31.6364C3.92898 31.4446 3.89938 31.2718 3.8402 31.1179C3.7822 30.9628 3.69401 30.8403 3.57564 30.7504C3.45845 30.6592 3.31108 30.6136 3.13352 30.6136C2.96307 30.6136 2.81984 30.6568 2.70384 30.7433C2.58783 30.8285 2.50024 30.948 2.44105 31.1019C2.38187 31.2546 2.35227 31.4328 2.35227 31.6364ZM5.16122 34.0227C5.0902 34.0227 5.02687 34.0168 4.97124 34.005C4.9156 33.9943 4.87713 33.9837 4.85582 33.973L4.96236 33.6037C5.06416 33.6297 5.15412 33.6392 5.23224 33.6321C5.31037 33.625 5.37962 33.5901 5.43999 33.5273C5.50154 33.4658 5.55777 33.3658 5.60866 33.2273L5.68679 33.0142L4.67827 30.2727H5.13281L5.88565 32.446H5.91406L6.6669 30.2727H7.12145L5.96378 33.3977C5.9117 33.5386 5.84718 33.6552 5.77024 33.7475C5.6933 33.841 5.60393 33.9103 5.50213 33.9553C5.40152 34.0002 5.28788 34.0227 5.16122 34.0227ZM10.6575 30.5H10.2172C10.1911 30.3733 10.1455 30.2621 10.0804 30.1662C10.0165 30.0703 9.93839 29.9898 9.84606 29.9247C9.75491 29.8584 9.65371 29.8087 9.54244 29.7756C9.43117 29.7424 9.31516 29.7259 9.19442 29.7259C8.97425 29.7259 8.7748 29.7815 8.59606 29.8928C8.4185 30.004 8.27705 30.168 8.1717 30.3846C8.06753 30.6012 8.01545 30.867 8.01545 31.1818C8.01545 31.4967 8.06753 31.7624 8.1717 31.979C8.27705 32.1957 8.4185 32.3596 8.59606 32.4709C8.7748 32.5821 8.97425 32.6378 9.19442 32.6378C9.31516 32.6378 9.43117 32.6212 9.54244 32.5881C9.65371 32.5549 9.75491 32.5058 9.84606 32.4407C9.93839 32.3744 10.0165 32.2933 10.0804 32.1974C10.1455 32.1004 10.1911 31.9891 10.2172 31.8636H10.6575C10.6243 32.0495 10.564 32.2158 10.4764 32.3626C10.3888 32.5094 10.2799 32.6342 10.1497 32.7372C10.0195 32.839 9.87328 32.9165 9.71112 32.9698C9.55013 33.0231 9.3779 33.0497 9.19442 33.0497C8.88429 33.0497 8.60849 32.974 8.36701 32.8224C8.12553 32.6709 7.93555 32.4555 7.79705 32.1761C7.65856 31.8968 7.58931 31.5653 7.58931 31.1818C7.58931 30.7983 7.65856 30.4669 7.79705 30.1875C7.93555 29.9081 8.12553 29.6927 8.36701 29.5412C8.60849 29.3897 8.88429 29.3139 9.19442 29.3139C9.3779 29.3139 9.55013 29.3406 9.71112 29.3938C9.87328 29.4471 10.0195 29.5252 10.1497 29.6282C10.2799 29.73 10.3888 29.8543 10.4764 30.0011C10.564 30.1467 10.6243 30.313 10.6575 30.5ZM11.3691 33V29.3636H11.8094V30.983H13.7483V29.3636H14.1887V33H13.7483V31.3736H11.8094V33H11.3691ZM15.5106 29.3636V33H15.0702V29.3636H15.5106ZM17.5156 33H16.3935V29.3636H17.5653C17.9181 29.3636 18.2199 29.4364 18.4709 29.582C18.7218 29.7264 18.9142 29.9342 19.0479 30.2053C19.1817 30.4751 19.2486 30.7983 19.2486 31.1747C19.2486 31.5535 19.1811 31.8796 19.0462 32.1531C18.9112 32.4253 18.7147 32.6348 18.4567 32.7816C18.1986 32.9272 17.8849 33 17.5156 33ZM16.8338 32.6094H17.4872C17.7879 32.6094 18.0371 32.5514 18.2347 32.4354C18.4324 32.3194 18.5798 32.1542 18.6768 31.94C18.7739 31.7257 18.8224 31.4706 18.8224 31.1747C18.8224 30.8812 18.7745 30.6284 18.6786 30.4165C18.5827 30.2035 18.4395 30.0401 18.2489 29.9265C18.0584 29.8117 17.821 29.7543 17.5369 29.7543H16.8338V32.6094ZM21.1094 33H19.9872V29.3636H21.1591C21.5118 29.3636 21.8137 29.4364 22.0646 29.582C22.3156 29.7264 22.5079 29.9342 22.6417 30.2053C22.7754 30.4751 22.8423 30.7983 22.8423 31.1747C22.8423 31.5535 22.7749 31.8796 22.6399 32.1531C22.505 32.4253 22.3085 32.6348 22.0504 32.7816C21.7924 32.9272 21.4787 33 21.1094 33ZM20.4276 32.6094H21.081C21.3816 32.6094 21.6308 32.5514 21.8285 32.4354C22.0262 32.3194 22.1735 32.1542 22.2706 31.94C22.3677 31.7257 22.4162 31.4706 22.4162 31.1747C22.4162 30.8812 22.3683 30.6284 22.2724 30.4165C22.1765 30.2035 22.0333 30.0401 21.8427 29.9265C21.6521 29.8117 21.4148 29.7543 21.1307 29.7543H20.4276V32.6094ZM23.581 33V29.3636H24.0213V32.6094H25.7116V33H23.581ZM26.3935 33V29.3636H28.5881V29.7543H26.8338V30.983H28.4744V31.3736H26.8338V32.6094H28.6165V33H26.3935ZM29.3817 33V29.3636H30.6104C30.8945 29.3636 31.1277 29.4122 31.31 29.5092C31.4923 29.6051 31.6272 29.7371 31.7148 29.9052C31.8024 30.0733 31.8462 30.2644 31.8462 30.4787C31.8462 30.6929 31.8024 30.8829 31.7148 31.0487C31.6272 31.2144 31.4929 31.3446 31.3118 31.4393C31.1307 31.5328 30.8993 31.5795 30.6175 31.5795H29.6232V31.1818H30.6033C30.7975 31.1818 30.9537 31.1534 31.0721 31.0966C31.1916 31.0398 31.2781 30.9593 31.3313 30.8551C31.3858 30.7498 31.413 30.6243 31.413 30.4787C31.413 30.3331 31.3858 30.2058 31.3313 30.0969C31.2769 29.988 31.1899 29.904 31.0703 29.8448C30.9508 29.7844 30.7927 29.7543 30.5962 29.7543H29.8221V33H29.3817ZM31.0934 31.3665L31.9883 33H31.4769L30.5962 31.3665H31.0934Z" fill="black" fill-opacity="0.65"/>
<path d="M9.63068 29H1.89631V7.18182H9.6946C11.8892 7.18182 13.7784 7.61861 15.3622 8.49219C16.946 9.35866 18.1641 10.6051 19.0163 12.2315C19.8757 13.858 20.3054 15.804 20.3054 18.0696C20.3054 20.3423 19.8757 22.2955 19.0163 23.929C18.1641 25.5625 16.9389 26.8161 15.3409 27.6896C13.75 28.5632 11.8466 29 9.63068 29ZM6.50923 25.0476H9.43892C10.8026 25.0476 11.9496 24.8061 12.88 24.3232C13.8175 23.8331 14.5206 23.0767 14.9893 22.054C15.4652 21.0241 15.7031 19.696 15.7031 18.0696C15.7031 16.4574 15.4652 15.1399 14.9893 14.1172C14.5206 13.0945 13.821 12.3416 12.8906 11.8587C11.9602 11.3757 10.8132 11.1342 9.44957 11.1342H6.50923V25.0476Z" fill="#2288AA" fill-opacity="0.65"/>
<path d="M28.9426 29.3835C27.9057 29.3835 26.9647 29.1882 26.1195 28.7976C25.2743 28.3999 24.6032 27.8281 24.106 27.0824C23.6088 26.3295 23.3603 25.4205 23.3603 24.3551C23.3603 23.4176 23.5449 22.6577 23.9142 22.0753C24.2836 21.4858 24.7772 21.0241 25.3951 20.6903C26.013 20.3565 26.6948 20.108 27.4405 19.9446C28.1934 19.7741 28.9498 19.6392 29.7097 19.5398C30.704 19.4119 31.5101 19.3161 32.128 19.2521C32.753 19.1811 33.2076 19.0639 33.4917 18.9006C33.7828 18.7372 33.9284 18.4531 33.9284 18.0483V17.9631C33.9284 16.9119 33.6408 16.0952 33.0655 15.5128C32.4973 14.9304 31.6344 14.6392 30.4767 14.6392C29.2765 14.6392 28.3354 14.902 27.6536 15.4276C26.9718 15.9531 26.4924 16.5142 26.2154 17.1108L23.829 16.2585C24.2551 15.2642 24.8233 14.4901 25.5336 13.9361C26.2509 13.375 27.0321 12.9844 27.8773 12.7642C28.7296 12.5369 29.5676 12.4233 30.3915 12.4233C30.9171 12.4233 31.5208 12.4872 32.2026 12.6151C32.8915 12.7358 33.5556 12.9879 34.1948 13.3714C34.8411 13.755 35.3773 14.3338 35.8034 15.108C36.2296 15.8821 36.4426 16.919 36.4426 18.2188V29H33.9284V26.7841H33.8006C33.6301 27.1392 33.3461 27.5192 32.9483 27.924C32.5506 28.3288 32.0215 28.6733 31.361 28.9574C30.7005 29.2415 29.8944 29.3835 28.9426 29.3835ZM29.3262 27.125C30.3205 27.125 31.1586 26.9297 31.8404 26.5391C32.5293 26.1484 33.0478 25.6442 33.3958 25.0263C33.7509 24.4084 33.9284 23.7585 33.9284 23.0767V20.7756C33.8219 20.9034 33.5875 21.0206 33.2253 21.1271C32.8702 21.2266 32.4583 21.3153 31.9895 21.3935C31.5279 21.4645 31.0769 21.5284 30.6365 21.5852C30.2033 21.6349 29.8517 21.6776 29.5819 21.7131C28.9284 21.7983 28.3176 21.9368 27.7495 22.1286C27.1884 22.3132 26.7338 22.5937 26.3858 22.9702C26.0449 23.3395 25.8745 23.8437 25.8745 24.483C25.8745 25.3565 26.1976 26.017 26.8439 26.4645C27.4973 26.9048 28.3248 27.125 29.3262 27.125ZM43.5458 19.1562V29H41.0316V7.18182H43.5458V15.1932H43.7589C44.1424 14.348 44.7177 13.6768 45.4847 13.1797C46.2589 12.6754 47.2887 12.4233 48.5742 12.4233C49.6893 12.4233 50.6658 12.647 51.5039 13.0945C52.342 13.5348 52.9918 14.2131 53.4535 15.1293C53.9222 16.0384 54.1566 17.196 54.1566 18.6023V29H51.6424V18.7727C51.6424 17.473 51.305 16.468 50.6303 15.7578C49.9627 15.0405 49.0359 14.6818 47.8498 14.6818C47.0259 14.6818 46.2873 14.8558 45.6339 15.2038C44.9876 15.5518 44.4762 16.0597 44.0998 16.7273C43.7305 17.3949 43.5458 18.2045 43.5458 19.1562ZM61.2704 19.1562V29H58.7562V7.18182H61.2704V15.1932H61.4835C61.867 14.348 62.4423 13.6768 63.2093 13.1797C63.9835 12.6754 65.0133 12.4233 66.2988 12.4233C67.4139 12.4233 68.3904 12.647 69.2285 13.0945C70.0666 13.5348 70.7164 14.2131 71.1781 15.1293C71.6468 16.0384 71.8812 17.196 71.8812 18.6023V29H69.367V18.7727C69.367 17.473 69.0297 16.468 68.3549 15.7578C67.6873 15.0405 66.7605 14.6818 65.5744 14.6818C64.7505 14.6818 64.0119 14.8558 63.3585 15.2038C62.7122 15.5518 62.2008 16.0597 61.8244 16.7273C61.4551 17.3949 61.2704 18.2045 61.2704 19.1562ZM83.3416 29.3409C81.7649 29.3409 80.4048 28.9929 79.2614 28.2969C78.125 27.5938 77.2479 26.6136 76.63 25.3565C76.0192 24.0923 75.7138 22.6222 75.7138 20.946C75.7138 19.2699 76.0192 17.7926 76.63 16.5142C77.2479 15.2287 78.1072 14.2273 79.2081 13.5099C80.3161 12.7855 81.6087 12.4233 83.0859 12.4233C83.9382 12.4233 84.7798 12.5653 85.6108 12.8494C86.4418 13.1335 87.1982 13.5952 87.88 14.2344C88.5618 14.8665 89.1051 15.7045 89.5099 16.7486C89.9148 17.7926 90.1172 19.0781 90.1172 20.6051V21.6705H77.5036V19.4972H87.5604C87.5604 18.5739 87.3757 17.75 87.0064 17.0256C86.6442 16.3011 86.1257 15.7294 85.451 15.3104C84.7834 14.8913 83.995 14.6818 83.0859 14.6818C82.0845 14.6818 81.218 14.9304 80.4865 15.4276C79.7621 15.9176 79.2045 16.5568 78.8139 17.3452C78.4233 18.1335 78.228 18.9787 78.228 19.8807V21.3295C78.228 22.5653 78.4411 23.6129 78.8672 24.4723C79.3004 25.3246 79.9006 25.9744 80.6676 26.4219C81.4347 26.8622 82.326 27.0824 83.3416 27.0824C84.0021 27.0824 84.5987 26.9901 85.1314 26.8054C85.6712 26.6136 86.1364 26.3295 86.527 25.9531C86.9176 25.5696 87.2195 25.0937 87.4325 24.5256L89.8615 25.2074C89.6058 26.0312 89.1761 26.7557 88.5724 27.3807C87.9688 27.9986 87.223 28.4815 86.3352 28.8295C85.4474 29.1705 84.4496 29.3409 83.3416 29.3409ZM93.9418 29V12.6364H96.3707V15.108H96.5412C96.8395 14.2983 97.3793 13.6413 98.1605 13.1371C98.9418 12.6328 99.8224 12.3807 100.803 12.3807C100.987 12.3807 101.218 12.3842 101.495 12.3913C101.772 12.3984 101.982 12.4091 102.124 12.4233V14.9801C102.038 14.9588 101.843 14.9268 101.538 14.8842C101.239 14.8345 100.923 14.8097 100.589 14.8097C99.794 14.8097 99.0838 14.9766 98.4588 15.3104C97.8409 15.6371 97.3509 16.0916 96.9886 16.674C96.6335 17.2493 96.456 17.9062 96.456 18.6449V29H93.9418ZM107.618 19.1562V29H105.104V12.6364H107.533V15.1932H107.746C108.129 14.3622 108.712 13.6946 109.493 13.1903C110.274 12.679 111.283 12.4233 112.519 12.4233C113.627 12.4233 114.596 12.6506 115.427 13.1051C116.258 13.5526 116.904 14.2344 117.366 15.1506C117.828 16.0597 118.058 17.2102 118.058 18.6023V29H115.544V18.7727C115.544 17.4872 115.21 16.4858 114.543 15.7685C113.875 15.044 112.959 14.6818 111.794 14.6818C110.992 14.6818 110.274 14.8558 109.642 15.2038C109.017 15.5518 108.524 16.0597 108.161 16.7273C107.799 17.3949 107.618 18.2045 107.618 19.1562ZM122.653 29V12.6364H125.167V29H122.653ZM123.931 9.90909C123.441 9.90909 123.018 9.74219 122.663 9.40838C122.315 9.07457 122.141 8.6733 122.141 8.20455C122.141 7.7358 122.315 7.33452 122.663 7.00071C123.018 6.6669 123.441 6.5 123.931 6.5C124.421 6.5 124.84 6.6669 125.188 7.00071C125.543 7.33452 125.721 7.7358 125.721 8.20455C125.721 8.6733 125.543 9.07457 125.188 9.40838C124.84 9.74219 124.421 9.90909 123.931 9.90909Z" fill="black" fill-opacity="0.65"/>
</svg>
