<svg width="24" height="25" viewBox="0 0 24 25" fill="none" xmlns="http://www.w3.org/2000/svg">
<path d="M20.7119 16.2266H8.29191C8.08582 16.2269 7.88576 16.1571 7.72456 16.0287C7.56337 15.9003 7.45064 15.7209 7.40489 15.52L5.31361 6.40888C5.28302 6.27579 5.28283 6.13751 5.31307 6.00434C5.34331 5.87117 5.40319 5.74653 5.48826 5.6397C5.57333 5.53287 5.68139 5.4466 5.80441 5.38731C5.92743 5.32802 6.06224 5.29723 6.1988 5.29724H22.805C22.9417 5.29696 23.0767 5.32754 23.2 5.38672C23.3232 5.44589 23.4315 5.53213 23.5168 5.63899C23.6021 5.74586 23.6621 5.87059 23.6924 6.0039C23.7228 6.13721 23.7226 6.27564 23.692 6.40888L21.5971 15.52C21.5514 15.7206 21.4389 15.8998 21.2781 16.0282C21.1173 16.1565 20.9177 16.2265 20.7119 16.2266ZM9.01484 14.4102H19.989L21.6643 7.11547H7.3389L9.01484 14.4102Z" fill="black"/>
<path d="M10.0689 24.3398C9.38053 24.3398 8.70767 24.1357 8.13534 23.7533C7.56302 23.3709 7.11695 22.8274 6.85354 22.1914C6.59013 21.5555 6.52121 20.8557 6.6555 20.1806C6.78978 19.5055 7.12124 18.8854 7.60796 18.3987C8.09468 17.912 8.7148 17.5805 9.3899 17.4462C10.065 17.312 10.7648 17.3809 11.4007 17.6443C12.0366 17.9077 12.5802 18.3538 12.9626 18.9261C13.345 19.4984 13.5491 20.1713 13.5491 20.8596C13.5481 21.7823 13.1812 22.667 12.5287 23.3194C11.8762 23.9719 10.9916 24.3389 10.0689 24.3398ZM10.0689 19.1964C9.73976 19.1964 9.41805 19.294 9.14442 19.4768C8.87079 19.6597 8.65754 19.9196 8.53162 20.2236C8.40571 20.5277 8.3728 20.8623 8.43705 21.185C8.50129 21.5078 8.65982 21.8043 8.89257 22.0369C9.12532 22.2696 9.42184 22.428 9.74463 22.4921C10.0674 22.5563 10.402 22.5232 10.706 22.3972C11.01 22.2712 11.2698 22.0578 11.4526 21.7841C11.6353 21.5104 11.7328 21.1887 11.7327 20.8596C11.7322 20.4185 11.5567 19.9957 11.2448 19.6838C10.9329 19.372 10.5099 19.1967 10.0689 19.1964Z" fill="black"/>
<path d="M18.9343 24.3398C18.246 24.3398 17.5731 24.1357 17.0008 23.7533C16.4285 23.3709 15.9824 22.8274 15.719 22.1914C15.4556 21.5555 15.3867 20.8557 15.521 20.1806C15.6553 19.5055 15.9867 18.8854 16.4734 18.3987C16.9602 17.912 17.5803 17.5805 18.2554 17.4462C18.9305 17.312 19.6302 17.3809 20.2662 17.6443C20.9021 17.9077 21.4456 18.3538 21.828 18.9261C22.2105 19.4984 22.4146 20.1713 22.4146 20.8596C22.4136 21.7823 22.0466 22.667 21.3942 23.3194C20.7417 23.9719 19.8571 24.3389 18.9343 24.3398ZM18.9343 19.1964C18.6052 19.1964 18.2835 19.294 18.0099 19.4768C17.7363 19.6597 17.523 19.9196 17.3971 20.2236C17.2712 20.5277 17.2383 20.8623 17.3025 21.185C17.3668 21.5078 17.5253 21.8043 17.758 22.0369C17.9908 22.2696 18.2873 22.428 18.6101 22.4921C18.9329 22.5563 19.2675 22.5232 19.5715 22.3972C19.8755 22.2712 20.1353 22.0578 20.3181 21.7841C20.5008 21.5104 20.5983 21.1887 20.5982 20.8596C20.5977 20.4185 20.4222 19.9957 20.1103 19.6838C19.7983 19.372 19.3754 19.1967 18.9343 19.1964Z" fill="black"/>
<path d="M6.19879 7.11365C6.00815 7.11364 5.82235 7.05363 5.66772 6.94213C5.51308 6.83064 5.39745 6.67331 5.33721 6.49244L3.78055 1.81641H0.908203C0.667332 1.81641 0.436328 1.72072 0.266007 1.5504C0.0956854 1.38008 0 1.14907 0 0.908203C0 0.667333 0.0956854 0.436328 0.266007 0.266007C0.436328 0.0956854 0.667332 0 0.908203 0H4.43809C4.62873 1.76387e-05 4.81452 0.0600245 4.96916 0.171519C5.1238 0.283013 5.23943 0.44034 5.29967 0.621211L7.0634 5.91846C7.10887 6.05497 7.12125 6.20032 7.09953 6.34256C7.07781 6.48479 7.0226 6.61982 6.93847 6.73654C6.85433 6.85326 6.74366 6.94831 6.61559 7.01388C6.48752 7.07944 6.3457 7.11364 6.20182 7.11365H6.19879Z" fill="black"/>
</svg>
