<svg width="26" height="26" viewBox="0 0 26 26" fill="none" xmlns="http://www.w3.org/2000/svg">
<g clip-path="url(#clip0_45_6)">
<path d="M21.7213 21.1875H4.53377C4.40059 21.1871 4.26973 21.1527 4.15361 21.0875C4.03749 21.0222 3.93997 20.9284 3.8703 20.8149C3.80064 20.7014 3.76114 20.572 3.75557 20.439C3.74999 20.3059 3.77853 20.1736 3.83846 20.0547C4.80241 18.1118 5.30757 15.9736 5.31502 13.8047V11.0312C5.31502 8.95925 6.13812 6.97211 7.60325 5.50698C9.06838 4.04185 11.0555 3.21875 13.1275 3.21875C15.1995 3.21875 17.1867 4.04185 18.6518 5.50698C20.1169 6.97211 20.94 8.95925 20.94 11.0312V13.7891C20.9475 15.9579 21.4526 18.0962 22.4166 20.0391C22.4802 20.1585 22.5117 20.2925 22.508 20.4278C22.5042 20.5631 22.4654 20.6951 22.3953 20.8109C22.3252 20.9267 22.2262 21.0223 22.1081 21.0883C21.9899 21.1543 21.8566 21.1885 21.7213 21.1875ZM5.74471 19.625H20.5103C19.7653 17.7693 19.3809 15.7887 19.3775 13.7891V11.0312C19.3775 9.37365 18.719 7.78393 17.5469 6.61183C16.3748 5.43973 14.7851 4.78125 13.1275 4.78125C11.4699 4.78125 9.8802 5.43973 8.7081 6.61183C7.536 7.78393 6.87752 9.37365 6.87752 11.0312V13.7891C6.87418 15.7887 6.48971 17.7693 5.74471 19.625Z" fill="#101820"/>
<path d="M13.1274 24.3125C12.0914 24.3125 11.0979 23.9009 10.3653 23.1684C9.63274 22.4358 9.22119 21.4423 9.22119 20.4062C9.22119 20.199 9.3035 20.0003 9.45001 19.8538C9.59653 19.7073 9.79524 19.625 10.0024 19.625C10.2096 19.625 10.4084 19.7073 10.5549 19.8538C10.7014 20.0003 10.7837 20.199 10.7837 20.4062C10.7842 21.0276 11.0315 21.6234 11.4712 22.0625C11.9183 22.4867 12.5111 22.7232 13.1274 22.7232C13.7438 22.7232 14.3366 22.4867 14.7837 22.0625C14.8565 21.9897 14.943 21.9319 15.0382 21.8925C15.1334 21.853 15.2354 21.8327 15.3384 21.8327C15.4414 21.8327 15.5434 21.853 15.6386 21.8925C15.7337 21.9319 15.8202 21.9897 15.8931 22.0625C15.9659 22.1353 16.0237 22.2218 16.0631 22.317C16.1025 22.4122 16.1228 22.5142 16.1228 22.6172C16.1228 22.7202 16.1025 22.8222 16.0631 22.9174C16.0237 23.0126 15.9659 23.099 15.8931 23.1719C15.5296 23.5344 15.0983 23.8217 14.6238 24.0174C14.1492 24.2132 13.6408 24.3134 13.1274 24.3125Z" fill="#101820"/>
<path d="M13.1274 4.78125C12.9202 4.78125 12.7215 4.69894 12.575 4.55243C12.4285 4.40591 12.3462 4.2072 12.3462 4V1.65625C12.3462 1.44905 12.4285 1.25034 12.575 1.10382C12.7215 0.95731 12.9202 0.875 13.1274 0.875C13.3346 0.875 13.5334 0.95731 13.6799 1.10382C13.8264 1.25034 13.9087 1.44905 13.9087 1.65625V4C13.9087 4.2072 13.8264 4.40591 13.6799 4.55243C13.5334 4.69894 13.3346 4.78125 13.1274 4.78125Z" fill="#101820"/>
<path d="M20.9399 4C20.6309 4 20.3288 3.90836 20.0719 3.73667C19.8149 3.56498 19.6146 3.32095 19.4964 3.03544C19.3781 2.74993 19.3472 2.43577 19.4075 2.13267C19.4678 1.82958 19.6166 1.55117 19.8351 1.33265C20.0536 1.11413 20.332 0.965313 20.6351 0.905024C20.9382 0.844734 21.2524 0.875677 21.5379 0.993939C21.8234 1.1122 22.0674 1.31247 22.2391 1.56942C22.4108 1.82637 22.5024 2.12847 22.5024 2.4375C22.5024 2.8519 22.3378 3.24933 22.0448 3.54236C21.7518 3.83538 21.3543 4 20.9399 4Z" fill="#101820"/>
</g>
<defs>
<clipPath id="clip0_45_6">
<rect width="25" height="25" fill="white" transform="translate(0.627441 0.09375)"/>
</clipPath>
</defs>
</svg>
