<svg width="24" height="24" viewBox="0 0 24 24" fill="none" xmlns="http://www.w3.org/2000/svg">
<path d="M16.5 6.60001C16.5 4.20001 14.5 2.20001 12 2.20001C9.5 2.20001 7.5 4.20001 7.5 6.60001C7.5 9.00001 9.5 11 12 11C14.5 11 16.5 9.00001 16.5 6.60001ZM9.5 6.60001C9.5 5.30001 10.6 4.20001 12 4.20001C13.4 4.20001 14.5 5.30001 14.5 6.60001C14.5 7.90001 13.4 9.00001 12 9.00001C10.6 9.00001 9.5 7.90001 9.5 6.60001Z" fill="black"/>
<path d="M4.59999 16.3L4.09999 18.2C3.79999 19.1 3.99999 20.1 4.59999 20.9C5.19999 21.6 5.99999 22 6.99999 22H17C17.9 22 18.8 21.6 19.3 20.8C19.9 20 20.1 19 19.8 18.1L19.3 16.2C18.7 13.7 16.5 12 14 12H9.99999C7.49999 12 5.29999 13.7 4.59999 16.3ZM5.99999 18.7L6.49999 16.8C6.99999 15.1 8.39999 14 9.99999 14H14C15.6 14 17 15.1 17.5 16.8L18 18.7C18.1 19 18 19.4 17.8 19.7C17.7 19.8 17.4 20 17 20H6.99999C6.59999 20 6.39999 19.8 6.29999 19.6C5.99999 19.4 5.89999 19 5.99999 18.7Z" fill="black"/>
</svg>
